<?xml version="1.0" standalone="no"?><!DOCTYPE svg PUBLIC "-//W3C//DTD SVG 1.1//EN" "http://www.w3.org/Graphics/SVG/1.1/DTD/svg11.dtd"><svg t="1757661741810" class="icon" viewBox="0 0 1024 1024" version="1.1" xmlns="http://www.w3.org/2000/svg" p-id="10829" xmlns:xlink="http://www.w3.org/1999/xlink" width="200" height="200"><path d="M867.813053 862.315789H156.186947C70.063158 862.315789 0 798.881684 0 720.788211V249.317053C0 171.223579 70.063158 107.789474 156.186947 107.789474h711.626106C953.936842 107.789474 1024 171.223579 1024 249.317053v471.471158C1024 798.827789 953.936842 862.315789 867.813053 862.315789zM141.473684 161.684211C93.184 161.684211 53.894737 197.093053 53.894737 240.64v488.825263C53.894737 773.012211 93.184 808.421053 141.473684 808.421053h741.052632c48.289684 0 87.578947-35.408842 87.578947-78.95579v-488.825263C970.105263 197.093053 930.816 161.684211 882.526316 161.684211H141.473684zM716.638316 970.105263H307.361684C286.450526 970.105263 269.473684 958.032842 269.473684 943.157895s16.976842-26.947368 37.888-26.947369h409.276632c20.911158 0 37.888 12.072421 37.888 26.947369s-16.976842 26.947368-37.888 26.947368z" fill="#333333" p-id="10830"></path><path d="M199.626105 646.736842V518.682947h51.30779L322.937263 646.736842H379.418947L301.810526 512.215579c40.097684-12.503579 66.398316-41.822316 66.398316-90.974316 0-68.554105-49.152-91.836632-114.688-91.836631H149.611789V646.736842h50.014316z m47.858527-168.151579h-47.858527V369.502316h47.858527c46.133895 0 71.141053 13.365895 71.141052 51.738947S293.618526 478.585263 247.484632 478.585263z m269.473684 168.151579c94.854737 0 150.474105-56.912842 150.474105-159.959579 0-103.477895-55.619368-157.372632-153.061053-157.372631H432.020211V646.736842h84.938105z m-6.036211-40.96h-28.887579V369.933474h28.887579c68.122947 0 104.771368 37.510737 104.771369 116.843789 0 78.901895-36.648421 118.999579-104.771369 118.999579z m272.49179 40.96V526.443789h47.858526c68.985263 0 119.430737-31.905684 119.430737-101.322105 0-71.572211-50.445474-95.717053-121.155369-95.717052h-96.14821V646.736842h50.014316z m43.115789-160.390737h-43.115789V369.502316h41.391158c50.445474 0 76.746105 13.797053 76.746105 55.619368s-24.144842 61.224421-75.021474 61.224421z" fill="#7580D0" p-id="10831"></path></svg>