<?xml version="1.0" standalone="no"?><!DOCTYPE svg PUBLIC "-//W3C//DTD SVG 1.1//EN" "http://www.w3.org/Graphics/SVG/1.1/DTD/svg11.dtd"><svg t="1751190510391" class="icon" viewBox="0 0 1024 1024" version="1.1" xmlns="http://www.w3.org/2000/svg" p-id="19279" xmlns:xlink="http://www.w3.org/1999/xlink" width="200" height="200"><path d="M212.46 461.32c-4.82-3.93-12.5-5.68-23-5.68h-40.6v48.9h40.57c10.11 0 17.78-2.18 23-6.36q7.24-6.58 7.25-18.43 0.03-12.81-7.22-18.43zM464.57 453.21c-16.21 0-28.71 5.5-37.71 16.47-8.54 10.5-12.72 24.53-12.72 42.53 0 17.75 4.18 31.79 12.72 42.33 8.78 10.75 21.5 16.21 37.71 16.21s28.75-5.25 37.5-15.54c8.57-10.32 13-24.57 13-43s-4.4-32.89-13-43.42c-8.75-10.54-21.25-15.58-37.5-15.58z" fill="#2c2c2c" p-id="19280"></path><path d="M841.14 36.57H182.86A146.29 146.29 0 0 0 36.57 182.86v658.28a146.29 146.29 0 0 0 146.29 146.29h658.28a146.29 146.29 0 0 0 146.29-146.29V182.86A146.29 146.29 0 0 0 841.14 36.57zM226.29 590.29c-3.72-4.83-5.93-11.61-6.79-20.4l-2-19.28q-1.29-12.86-7.89-18.43c-4.61-4-11.4-5.72-20.18-5.72h-40.57v63.83h-25.65V433.71H193c16 0 28.72 3.5 37.93 10.72 9.65 7.93 14.68 19.32 14.68 34.21a37.24 37.24 0 0 1-6.61 21.72 33.88 33.88 0 0 1-20 13.82v0.43c13.6 3.07 21.28 12.07 23 27.43l2.64 25.21c0.86 9.64 4.15 17.32 9.43 23z m154.46 0H270.68V433.71h25.43v134.65h84.64z m140.43-20q-20.73 23-56.61 23c-24.11 0-43-7.9-56.57-23.25-13.14-14.9-19.5-34.22-19.5-57.9 0-23.89 6.36-43.21 19.5-58.1 13.61-15.79 32.46-23.47 56.57-23.47 23.93 0 42.79 7.68 56.61 23.25 13.14 14.68 19.71 34.18 19.71 58.32s-6.57 43.5-19.71 58.18z m175.75 2.86a91.66 91.66 0 0 1-28.5 14.93 128.56 128.56 0 0 1-38 5.25c-25 0-44.28-7.9-58.1-23.68-12.93-14.72-19.29-33.79-19.29-57 0-23.46 6.36-42.75 19.29-57.89 13.6-16.21 32-24.11 55.25-24.11 20.18 0 36 4.36 47.6 13.36 11.18 8.79 18.22 21.71 21 39.25h-25.79c-2.21-10.07-7-17.54-14-22.57-7.25-5-16.9-7.47-28.75-7.47-14.68 0-26.29 4.83-34.86 14.93-9.43 10.5-14 25.22-14 44.5 0 18.43 4.18 32.68 12.5 42.57Q604.71 571 633.32 571a81.79 81.79 0 0 0 21.07-2.64 71.88 71.88 0 0 0 16.86-7.25v-32.22h-41.43V507h67.11z m48.78 17.11h-25.64V433.71h25.64z m155.08 0h-25L797.5 475.82h-0.89v114.47H771V433.71h25.65L874 546.64h0.89V433.71h25.86z" fill="#2c2c2c" p-id="19281"></path></svg>