<?xml version="1.0" standalone="no"?><!DOCTYPE svg PUBLIC "-//W3C//DTD SVG 1.1//EN" "http://www.w3.org/Graphics/SVG/1.1/DTD/svg11.dtd"><svg t="1751190293270" class="icon" viewBox="0 0 1024 1024" version="1.1" xmlns="http://www.w3.org/2000/svg" p-id="10177" xmlns:xlink="http://www.w3.org/1999/xlink" width="200" height="200"><path d="M933.010286 393.069714v548.754286A82.139429 82.139429 0 0 1 850.834286 1024H175.908571a82.176 82.176 0 0 1-79.908571-63.012571l-0.329143-46.957715-1.901714-279.771428V82.176A82.139429 82.139429 0 0 1 175.872 0h364.068571c32.731429 0 138.678857 90.331429 232.338286 185.490286 85.467429 86.857143 160.731429 177.700571 160.731429 207.579428z" fill="#EEEEEE" p-id="10178"></path><path d="M933.010286 393.069714v201.033143l-0.036572-0.731428c-6.217143-246.637714-207.104-258.048-272.822857-323.766858l112.128-84.114285c85.467429 86.857143 160.731429 177.700571 160.731429 207.579428z" fill="#DDDDDD" p-id="10179"></path><path d="M539.940571 0H338.907429h0.694857c246.674286 6.217143 258.084571 207.140571 323.766857 272.822857l84.114286-112.128C660.626286 75.227429 569.782857 0 539.940571 0z" fill="#DDDDDD" p-id="10180"></path><path d="M932.973714 393.069714v34.742857c0-73.142857-59.318857-132.498286-132.498285-132.498285h-80.64a82.176 82.176 0 0 1-82.176-82.176V132.498286c0-73.142857-59.318857-132.498286-132.498286-132.498286h34.742857c62.610286 0 122.624 24.868571 166.875429 69.12l157.110857 157.074286a235.995429 235.995429 0 0 1 69.12 166.875428z" fill="#CCCCCC" p-id="10181"></path><path d="M353.097143 428.617143c-37.961143 0-69.010286 8.411429-93.659429 25.6-26.624 17.773714-39.424 42.422857-39.424 73.472s13.312 54.710857 40.411429 70.948571c10.349714 5.924571 37.449143 15.798857 80.822857 29.622857 38.948571 11.812571 61.622857 19.675429 68.534857 23.149715 21.686857 10.825143 32.987429 25.6 32.987429 44.361143 0 14.774857-7.862857 26.112-22.674286 34.962285-14.774857 8.411429-35.474286 12.8-61.074286 12.8-29.110857 0-50.285714-5.376-64.109714-15.250285-15.250286-11.337143-24.649143-30.573714-28.562286-57.161143H209.152c2.486857 44.836571 18.724571 77.385143 48.310857 98.084571 24.137143 16.749714 58.148571 25.124571 101.522286 25.124572 44.873143 0 79.872-9.362286 104.521143-27.099429 24.612571-18.249143 36.937143-43.373714 36.937143-74.934857 0-32.548571-15.250286-57.673143-45.824-75.885714-13.787429-7.899429-44.361143-19.748571-92.16-34.523429-32.548571-10.349714-52.736-17.737143-60.123429-21.686857-16.786286-8.850286-24.649143-21.211429-24.649143-35.949714 0-16.786286 6.875429-29.110857 21.686857-36.498286 11.812571-6.4 28.562286-9.362286 50.761143-9.362286 25.6 0 45.348571 4.425143 58.148572 14.299429 12.8 9.362286 22.198857 25.124571 27.099428 46.811428h57.197714c-3.474286-38.4-17.773714-67.035429-42.422857-85.248-23.149714-17.261714-55.661714-25.636571-97.060571-25.636571zM666.550857 428.617143c-34.486857 0-63.085714 9.362286-85.248 29.074286-23.661714 19.748571-36.498286 47.323429-39.460571 82.797714h56.685714c1.974857-21.211429 8.886857-36.937143 20.699429-47.323429 11.337143-10.349714 27.136-15.250286 47.835428-15.250285 20.187429 0 35.474286 4.425143 45.824 13.312 9.362286 8.850286 14.262857 21.686857 14.262857 38.912 0 17.261714-5.376 30.573714-15.725714 39.424-10.861714 8.886857-26.624 13.312-47.323429 13.312h-24.649142v43.373714h24.649142c22.674286 0 39.899429 4.461714 51.748572 14.299428 11.812571 9.362286 18.212571 24.137143 18.212571 44.361143 0 16.749714-5.888 30.573714-17.225143 41.910857-12.8 12.324571-30.573714 18.724571-52.736 18.724572-20.224 0-36.498286-5.924571-48.822857-17.261714-13.787429-12.324571-20.699429-30.061714-21.686857-52.736h-58.624c2.925714 39.424 16.749714 69.997714 41.398857 90.697142 22.162286 18.724571 51.748571 28.086857 88.210286 28.086858 38.436571 0 69.485714-10.825143 93.147429-32.036572 22.674286-20.699429 34.011429-47.323429 34.011428-79.835428 0-20.699429-5.888-37.961143-17.737143-51.273143-10.825143-12.8-27.099429-22.162286-47.798857-28.598857 38.912-12.8 58.660571-38.4 58.660572-76.873143 0-30.573714-10.861714-54.198857-32.036572-71.460572-21.686857-17.261714-50.797714-25.636571-86.272-25.636571z" fill="#AAAAAA" p-id="10182"></path></svg>