<?xml version="1.0" standalone="no"?><!DOCTYPE svg PUBLIC "-//W3C//DTD SVG 1.1//EN" "http://www.w3.org/Graphics/SVG/1.1/DTD/svg11.dtd"><svg t="1751190383151" class="icon" viewBox="0 0 1024 1024" version="1.1" xmlns="http://www.w3.org/2000/svg" p-id="13609" xmlns:xlink="http://www.w3.org/1999/xlink" width="200" height="200"><path d="M298.666667 490.666667A32 32 0 1 0 298.666667 426.666667a32 32 0 0 0 0 64zM437.333333 458.666667a32 32 0 1 1-64 0 32 32 0 0 1 64 0zM352 597.333333a32 32 0 1 0 0-64 32 32 0 0 0 0 64zM490.666667 565.333333a32 32 0 1 1-64 0 32 32 0 0 1 64 0zM565.333333 597.333333a32 32 0 1 0 0-64 32 32 0 0 0 0 64zM704 565.333333a32 32 0 1 1-64 0 32 32 0 0 1 64 0zM512 490.666667a32 32 0 1 0 0-64 32 32 0 0 0 0 64zM650.666667 458.666667a32 32 0 1 1-64 0 32 32 0 0 1 64 0zM725.333333 490.666667a32 32 0 1 0 0-64 32 32 0 0 0 0 64z" p-id="13610"></path><path d="M209.365333 298.666667a117.333333 117.333333 0 0 0-114.133333 144.469333l45.696 192.085333A117.333333 117.333333 0 0 0 255.146667 725.333333h513.621333a117.333333 117.333333 0 0 0 114.133333-90.112l45.824-192.042666A117.333333 117.333333 0 0 0 814.592 298.666667H209.322667z m-51.882666 129.664a53.333333 53.333333 0 0 1 51.882666-65.706667h605.184a53.333333 53.333333 0 0 1 51.882667 65.706667l-45.824 192.085333a53.333333 53.333333 0 0 1-51.882667 40.96H255.146667a53.333333 53.333333 0 0 1-51.882667-40.96L157.44 428.288z" p-id="13611"></path></svg>