<?xml version="1.0" standalone="no"?><!DOCTYPE svg PUBLIC "-//W3C//DTD SVG 1.1//EN" "http://www.w3.org/Graphics/SVG/1.1/DTD/svg11.dtd"><svg t="1751190413514" class="icon" viewBox="0 0 1163 1024" version="1.1" xmlns="http://www.w3.org/2000/svg" p-id="14604" xmlns:xlink="http://www.w3.org/1999/xlink" width="227.1484375" height="200"><path d="M1093.793411 0.012975H69.819361A69.897212 69.897212 0 0 0 0 69.819361v954.167664h1163.612772V69.819361A69.897212 69.897212 0 0 0 1093.793411 0z m23.277446 977.445109H46.541916V186.180639h1070.528941z m0-837.806386H46.541916V69.819361a23.355297 23.355297 0 0 1 23.277445-23.277445h1023.97405a23.355297 23.355297 0 0 1 23.277446 23.277445z" p-id="14605"></path><path d="M308.250988 431.099848v49.422402h-38.121034v197.559858H205.915864V480.52225h-38.017232v-49.422402zM322.899949 431.099848h107.09701v49.422402h-42.818044v46.82737h40.11921v46.931171h-40.184085v54.301064h47.125798v49.500253h-111.339889zM516.930563 431.099848v197.520933h39.04227v49.461327h-103.282311V431.099848zM714.879676 431.099848v246.98226h-56.27329l-33.398074-112.261125v112.261125h-53.691231V431.099848h53.691231l35.993107 111.184186v-111.184186zM740.661328 431.099848h107.071059v49.422402h-42.818043v46.82737h40.119209v46.931171h-40.158135v54.301064h47.125798v49.500253h-111.339888zM995.714141 431.099848v49.422402h-38.172935v197.559858h-64.21409V480.52225h-37.978307v-49.422402z" p-id="14606"></path></svg>