<?xml version="1.0" standalone="no"?><!DOCTYPE svg PUBLIC "-//W3C//DTD SVG 1.1//EN" "http://www.w3.org/Graphics/SVG/1.1/DTD/svg11.dtd"><svg t="1751190582352" class="icon" viewBox="0 0 1024 1024" version="1.1" xmlns="http://www.w3.org/2000/svg" p-id="21472" xmlns:xlink="http://www.w3.org/1999/xlink" width="200" height="200"><path d="M128 64a64 64 0 0 0-64 64v768a64 64 0 0 0 64 64h768a64 64 0 0 0 64-64V128a64 64 0 0 0-64-64H128z m0-64h768a128 128 0 0 1 128 128v768a128 128 0 0 1-128 128H128a128 128 0 0 1-128-128V128a128 128 0 0 1 128-128z" fill="#000000" p-id="21473"></path><path d="M390.912 700.416l-197.76-401.28a32 32 0 1 0-55.488 32l224.192 454.784a32.448 32.448 0 0 0 1.344 2.176 32 32 0 0 0 55.552 0.256l224.192-454.784a32 32 0 1 0-55.424-32l-196.608 398.848z" fill="#000000" p-id="21474"></path><path d="M835.2 384H735.36l-1.664 108.608a32 32 0 0 1-63.808-4.48l2.112-137.728a32 32 0 0 1 22.848-28.48 31.936 31.936 0 0 1 11.008-1.92h156.8c2.368 0 4.736 0.256 7.04 0.768a32 32 0 0 1 28.992 34.112l1.152 138.304a32 32 0 1 1-63.808-4.48L835.2 384zM714.688 651.712v99.584l155.392 1.792a32 32 0 0 1-4.48 63.808l-184.512-2.112a32 32 0 0 1-28.416-22.848 31.936 31.936 0 0 1-1.92-11.008v-156.8c0-2.432 0.192-4.736 0.704-7.04a32 32 0 0 1 34.112-28.992l185.152-1.152a32 32 0 1 1-4.48 63.808l-151.552 0.96z" fill="#000000" p-id="21475"></path></svg>