<?xml version="1.0" standalone="no"?><!DOCTYPE svg PUBLIC "-//W3C//DTD SVG 1.1//EN" "http://www.w3.org/Graphics/SVG/1.1/DTD/svg11.dtd">
<svg t="1741264258720" class="icon" viewBox="0 0 1024 1024" version="1.1" xmlns="http://www.w3.org/2000/svg" p-id="2610"
     width="200" height="200"><path d="M822.4 665.6a32 32 0 0 0-32 32v101.76A29.44 29.44 0 0 1 768 832H256a29.44 29.44 0 0 1-24.96-32v-102.4a32 32 0 0 0-32-32 32 32 0 0 0-32 32v101.76A92.8 92.8 0 0 0 256 896h512a92.8 92.8 0 0 0 88.96-96v-102.4a32 32 0 0 0-34.56-32zM840.32 309.12l-152.96-164.48a50.56 50.56 0 0 0-37.12-16.64H256a92.8 92.8 0 0 0-88.96 96v275.2a32.64 32.64 0 0 0 32 32 32 32 0 0 0 32-32V224.64A29.44 29.44 0 0 1 256 192h384l145.92 156.16V499.2a32 32 0 0 0 32 32 32.64 32.64 0 0 0 32-32V343.68a49.28 49.28 0 0 0-9.6-34.56z" fill="#2c2c2c" p-id="2611"></path><path d="M476.8 455.04v98.56a56.96 56.96 0 0 1-10.24 37.76 49.28 49.28 0 0 1-37.12 12.8 44.16 44.16 0 0 1-33.92-12.16 48.64 48.64 0 0 1-11.52-33.92v-4.48h23.68v4.48c0 16.64 7.68 24.96 21.76 24.96A22.4 22.4 0 0 0 448 576a37.12 37.12 0 0 0 5.76-23.04V455.04zM597.76 462.72a46.08 46.08 0 0 1 17.28 35.2h-23.68a29.44 29.44 0 0 0-11.52-19.2 35.84 35.84 0 0 0-23.68-5.76 44.16 44.16 0 0 0-21.12 3.84 14.72 14.72 0 0 0-9.6 14.72 17.92 17.92 0 0 0 10.24 15.36l25.6 8.96a183.04 183.04 0 0 1 37.76 14.08 37.12 37.12 0 0 1 3.84 64 71.68 71.68 0 0 1-43.52 11.52 73.6 73.6 0 0 1-42.24-10.24 51.84 51.84 0 0 1-19.84-40.96h23.68a35.2 35.2 0 0 0 12.16 21.76 46.08 46.08 0 0 0 26.24 6.4 56.96 56.96 0 0 0 25.6-6.4 16.64 16.64 0 0 0 9.6-14.72 21.76 21.76 0 0 0-14.08-18.56l-28.16-9.6a261.12 261.12 0 0 1-33.92-12.16 35.2 35.2 0 0 1 0-60.16 64 64 0 0 1 38.4-10.88 69.12 69.12 0 0 1 40.96 12.8z" fill="#2c2c2c" p-id="2612"></path></svg>