<?xml version="1.0" standalone="no"?><!DOCTYPE svg PUBLIC "-//W3C//DTD SVG 1.1//EN" "http://www.w3.org/Graphics/SVG/1.1/DTD/svg11.dtd">
<svg t="1741003459610" class="icon" viewBox="0 0 1024 1024" version="1.1" xmlns="http://www.w3.org/2000/svg"
     p-id="13518"
     width="200" height="200"><path d="M136.712 150.908c-15.521 0-28.104 12.583-28.104 28.104v515.237c0 15.522 12.583 28.104 28.104 28.104h749.434c15.521 0 28.104-12.582 28.104-28.104V179.012c0-15.521-12.583-28.104-28.104-28.104H136.712z m0-65.575h749.434a93.682 93.682 0 0 1 93.68 93.679v515.237a93.682 93.682 0 0 1-27.438 66.242 93.683 93.683 0 0 1-66.242 27.437H136.712a93.68 93.68 0 0 1-93.68-93.679V179.012a93.678 93.678 0 0 1 93.68-93.679z m93.679 829.062c0 18.109 14.68 32.788 32.788 32.788h496.828c18.109 0 32.788-14.679 32.788-32.788 0-18.108-14.679-32.788-32.788-32.788H263.179a32.787 32.787 0 0 0-32.788 32.788z" fill="#000000" fill-opacity=".75" p-id="13519"></path><path d="M234.627 411.625c-17.44 0-28.119-11.71-28.119-26.616 0-25.196 18.509-29.1 41.645-29.1h102.152V297H225.017C177.322 297 146 337.456 146 382.17c0 62.814 39.508 88.365 100.017 88.365h35.95c22.423 0 39.864 13.485 39.864 36.552 0 24.486-19.933 35.842-44.136 35.842H155.61V599h138.102C343.186 599 377 559.254 377 507.087c0-55.36-37.373-95.462-87.915-95.462h-54.458zM492.627 411.625c-17.44 0-28.119-11.71-28.119-26.616 0-25.196 18.509-29.1 41.645-29.1h102.152V297H483.017C435.322 297 404 337.456 404 382.17c0 62.814 39.508 88.365 100.017 88.365h35.95c22.423 0 39.864 13.485 39.864 36.552 0 24.486-19.933 35.842-44.136 35.842H413.61V599h138.102C601.186 599 635 559.254 635 507.087c0-55.36-37.373-95.462-87.915-95.462h-54.458zM879 297h-55.97v125.626h-96.706V297H670v302h56.324V473.019h96.707V599H879z" fill="#000000" fill-opacity=".75" p-id="13520"></path></svg>