<?xml version="1.0" standalone="no"?><!DOCTYPE svg PUBLIC "-//W3C//DTD SVG 1.1//EN" "http://www.w3.org/Graphics/SVG/1.1/DTD/svg11.dtd"><svg t="1687163904027" class="icon" viewBox="0 0 1024 1024" version="1.1" xmlns="http://www.w3.org/2000/svg" p-id="15161" xmlns:xlink="http://www.w3.org/1999/xlink" width="200" height="200"><path d="M320 192h64v64H320V192z m0 320h64V448H320v64z m0 256h64v-64H320v64z m416-576h-256c-19.2 0-32 12.8-32 32s12.8 32 32 32h256c19.2 0 32-12.8 32-32s-12.8-32-32-32zM960 128v704c0 70.4-57.6 128-128 128H256c-70.4 0-128-57.6-128-128V128c0-70.4 57.6-128 128-128h576c70.4 0 128 57.6 128 128z m-64 0c0-38.4-25.6-64-64-64H256c-38.4 0-64 25.6-64 64v704c0 38.4 25.6 64 64 64h576c38.4 0 64-25.6 64-64V128z m-160 320h-256c-19.2 0-32 12.8-32 32s12.8 32 32 32h256c19.2 0 32-12.8 32-32s-12.8-32-32-32z m0 256h-256c-19.2 0-32 12.8-32 32s12.8 32 32 32h256c19.2 0 32-12.8 32-32s-12.8-32-32-32z" fill="" p-id="15162"></path></svg>