<?xml version="1.0" standalone="no"?><!DOCTYPE svg PUBLIC "-//W3C//DTD SVG 1.1//EN" "http://www.w3.org/Graphics/SVG/1.1/DTD/svg11.dtd"><svg t="1743069302980" class="icon" viewBox="0 0 1024 1024" version="1.1" xmlns="http://www.w3.org/2000/svg" p-id="4528" xmlns:xlink="http://www.w3.org/1999/xlink" width="200" height="200"><path d="M505.173333 238.933333c126.293333 0 221.866667-95.573333 221.866667-221.866666 0-10.24-10.24-17.066667-17.066667-17.066667-126.293333 0-221.866667 95.573333-221.866666 221.866667 0 10.24 6.826667 17.066667 17.066666 17.066666zM911.36 720.213333c-3.413333-3.413333-6.826667-6.826667-10.24-6.826666-78.506667-13.653333-139.946667-85.333333-139.946667-167.253334 0-68.266667 40.96-129.706667 105.813334-157.013333 3.413333-3.413333 10.24-6.826667 10.24-10.24s0-10.24-3.413334-13.653333c-51.2-68.266667-119.466667-92.16-163.84-92.16-40.96 0-75.093333 10.24-105.813333 20.48-30.72 6.826667-58.026667 13.653333-81.92 13.653333-27.306667 0-58.026667-6.826667-88.746667-17.066667-37.546667-6.826667-78.506667-17.066667-116.053333-17.066666-85.333333 0-204.8 109.226667-204.8 307.2s133.12 443.733333 238.933333 443.733333c58.026667 0 92.16-13.653333 119.466667-23.893333 17.066667-6.826667 34.133333-10.24 51.2-10.24s30.72 6.826667 51.2 10.24c27.306667 10.24 61.44 23.893333 119.466667 23.893333 85.333333 0 174.08-150.186667 218.453333-290.133333 3.413333-3.413333 0-6.826667 0-13.653334z" fill="" p-id="4529"></path></svg>