<?xml version="1.0" standalone="no"?><!DOCTYPE svg PUBLIC "-//W3C//DTD SVG 1.1//EN" "http://www.w3.org/Graphics/SVG/1.1/DTD/svg11.dtd"><svg t="1743069485263" class="icon" viewBox="0 0 1024 1024" version="1.1" xmlns="http://www.w3.org/2000/svg" p-id="11852" xmlns:xlink="http://www.w3.org/1999/xlink" width="200" height="200"><path d="M511.829333 85.333333c-37.973333 93.12-60.885333 154.026667-103.168 244.373334 25.92 27.498667 57.749333 59.498667 109.44 95.637333-55.573333-22.848-93.461333-45.802667-121.813333-69.632C342.186667 468.650667 257.429333 629.504 85.333333 938.666667c135.253333-78.08 240.064-126.208 337.770667-144.576a247.637333 247.637333 0 0 1-6.4-57.92l0.149333-4.330667c2.133333-86.656 47.210667-153.28 100.608-148.757333 53.397333 4.522667 94.890667 78.464 92.736 165.12-0.405333 16.298667-2.24 32-5.461333 46.528 96.64 18.901333 200.362667 66.922667 333.76 143.936-26.304-48.426667-49.770667-92.074667-72.192-133.674667-35.328-27.370667-72.170667-62.997333-147.306667-101.546667 51.648 13.397333 88.618667 28.885333 117.461334 46.208C608.469333 325.162667 590.016 268.8 511.829333 85.333333z" fill="#324558" p-id="11853"></path></svg>