<?xml version="1.0" standalone="no"?><!DOCTYPE svg PUBLIC "-//W3C//DTD SVG 1.1//EN" "http://www.w3.org/Graphics/SVG/1.1/DTD/svg11.dtd"><svg t="1743069595636" class="icon" viewBox="0 0 1024 1024" version="1.1" xmlns="http://www.w3.org/2000/svg" p-id="17207" xmlns:xlink="http://www.w3.org/1999/xlink" width="200" height="200"><path d="M780.736 473.6l-6.368-9.6c0-76.736-35.104-105.6-73.6-128 12.864-3.264 25.6-6.4 28.864-22.4 22.368-6.336 25.6-16 28.736-25.6 6.4-3.264 22.4-12.736 22.4-32 9.6-6.4 16-16 12.864-28.736 9.6-12.896 12.736-22.528 9.6-32 12.768-16 6.4-25.632 3.136-35.264 9.632-19.264 0-38.4-25.6-35.264-9.504-16-35.136-12.736-38.4-12.736-3.104-6.4-9.6-9.6-25.6-6.4-16-9.6-28.768-9.6-41.504-3.2-16-12.8-25.632-3.136-35.264 0-19.264-6.4-22.4 3.2-32 6.336-19.264-3.104-25.6 6.528-35.264 16h-9.472c-28.896 16-44.896 54.528-51.264 70.528-6.4-19.264-19.264-54.528-51.264-70.528h-9.472c-9.632-9.472-16-19.104-35.264-16-9.6-3.104-12.736-12.736-32-6.368-6.4-3.104-12.736-6.368-22.4-6.368-3.2 0-6.336 3.264-12.864 6.4-12.736-6.4-25.472-6.4-35.104 3.2-16-3.2-22.4 3.136-25.632 6.4-3.264 0-28.736-3.264-38.4 12.736-28.864-3.104-38.336 16-28.864 35.264-6.368 9.6-9.472 16 3.264 35.264-6.4 6.368-3.264 19.104 9.6 28.736-3.2 12.736 0 22.4 12.8 32-3.136 16 16 25.6 19.2 32 3.136 9.6 6.4 19.264 28.8 25.6 3.2 16 16 19.136 28.864 22.4-41.632 22.4-73.632 54.4-73.632 128l-6.4 9.6c-44.864 28.8-86.496 118.4-22.496 192 3.264 22.4 9.632 38.4 16 57.664 9.632 73.472 70.528 108.736 86.528 112 22.368 19.104 48 35.104 83.104 48 32 32 67.264 44.736 102.4 44.736 35.232 0 70.496-12.736 102.496-44.736 35.104-12.896 60.736-28.896 83.104-48 16-3.264 76.896-38.528 86.4-112C787.232 704 793.6 688 800 665.6c70.4-73.632 28.736-163.264-19.264-192z m-41.472-12.864C736 492.736 582.368 355.264 608 352c73.6-12.736 134.4 28.736 131.264 108.736zM569.6 144c0 6.4 3.104 9.6 3.104 12.736 9.632-9.472 16-19.104 25.632-28.736 0 6.4-3.104 9.6 3.264 16 6.368-9.6 12.736-16 25.6-22.4-6.496 9.664 0 12.8 3.136 16 9.632-6.336 16-12.864 32-19.2-3.104 6.336-9.6 9.6-3.104 16 9.472-6.4 16-9.664 38.368-16-3.264 6.336-12.896 9.6-9.632 16 9.6-3.136 22.4-6.4 35.264-9.664-6.528 6.528-12.896 9.632-6.528 12.896 12.896-3.264 25.632-9.632 41.632-3.264l-9.6 9.632h38.496c-6.528 9.6-12.896 16-16 28.736h16c-6.528 19.264-19.264 22.528-22.528 28.896 3.264 3.104 9.632 3.104 19.264 0-6.4 12.736-16 19.104-25.6 28.736 3.2 3.264 6.336 3.264 16 0-9.664 9.632-19.136 16-28.8 25.632 3.136 3.264 9.664 3.264 16 3.264-9.6 9.472-25.6 16-38.336 22.368 3.104 6.368 9.472 3.104 12.736 3.104-9.6 6.528-25.6 12.896-38.4 16 3.136 3.264 6.4 6.528 12.8 6.528-16 9.472-38.4 3.104-44.8 9.472 0 3.264 6.4 6.528 9.664 9.632-25.632 0-92.896 0-105.632-51.104 25.6-28.896 70.368-60.896 150.368-102.528-60.736 22.528-118.4 48-163.264 86.528-51.104-25.632-16-89.632 12.896-115.264zM512 329.6c38.4 0 86.4 28.8 86.4 57.664 0 25.472-35.136 44.736-86.4 44.736s-86.4-25.6-86.4-48 41.664-54.4 86.4-54.4z m-195.264-19.2c6.528 0 9.632-3.136 12.896-6.4-16-6.4-32-9.6-41.632-19.264 6.4 0 9.6 0 16-3.104-12.736-6.4-25.6-12.896-38.4-22.4 6.4 0 12.8 0 16-3.232-9.6-6.4-19.2-16-28.864-22.4h16c-9.472-12.864-19.104-19.2-25.472-32 6.368 3.136 12.736 3.136 19.104 0-3.104-6.336-19.104-9.6-25.6-25.6h16c-3.136-12.736-9.504-22.4-12.768-28.736h38.4l-9.664-12.896c16-3.104 32 0 41.632 3.264 6.4-3.264 0-9.632-6.368-12.896 12.736 3.264 25.6 6.528 35.264 9.632 6.368-6.368-3.264-9.6-9.632-16 22.368 3.264 28.736 9.632 38.368 16 6.4-6.368 0-9.6-3.264-16 16 6.4 22.528 12.896 32 19.264 3.264-3.264 6.528-6.4 3.264-16 6.4 6.368 16 12.736 22.4 22.368 6.336-3.264 3.2-9.6 3.2-16 9.664 9.6 19.136 19.264 25.664 28.736 3.104 0 3.104-6.368 3.104-12.736 25.632 25.6 64 89.6 9.632 115.264C419.264 220.736 361.6 192 300.736 172.736c80 41.632 124.896 73.632 150.528 102.528-12.896 51.104-80 54.368-105.632 51.104 6.368-3.104 9.6-6.368 9.6-9.6-3.232-3.136-22.496 0-38.496-6.4z m89.632 38.336c25.632 3.264-128 140.896-131.104 108.896-3.264-76.896 57.472-121.632 131.104-108.896z m-163.104 304c-38.528-32-51.264-118.368 19.104-160 41.632-12.736 16 172.896-19.104 160z m147.104 160c-22.368 12.896-73.6 6.528-108.736-44.736-25.632-44.736-22.4-89.6-3.264-102.4 25.632-16 67.264 6.4 96 41.664 25.632 28.736 38.4 86.368 16 105.472z m-41.6-195.104c-38.4-25.632-44.768-83.264-16-131.264 32-44.736 86.496-64 124.864-38.368 38.368 25.6 44.736 83.264 16 131.264-28.896 48-86.4 64-124.896 38.368zM512 902.368c-48 3.264-92.736-38.368-92.736-51.104 0-19.264 57.472-35.264 96-35.264 38.368-3.264 89.472 12.736 89.472 32 0 12.736-48 54.4-92.736 54.4z m96-204.736c0 48-41.6 86.368-92.736 86.368-51.264 0-96-38.4-96-86.4 0-48 41.472-86.336 92.736-86.336 54.4 0 96 38.368 96 86.368zM550.4 576c-32-44.736-22.4-105.6 16-131.264 38.336-25.472 96-9.472 124.864 38.528 28.736 48 22.368 105.472-16 131.104-38.528 22.4-96 6.4-124.896-38.368z m192 192c-41.664 57.6-96 57.6-115.136 41.6-22.528-19.2-6.528-83.2 25.472-118.336 32-38.528 70.528-64 92.896-44.896 16 22.4 25.6 83.264-3.264 121.632z m28.864-118.4c-35.264 16-64-169.6-19.264-160 70.4 38.4 57.6 128 19.264 160z" p-id="17208"></path></svg>