<?xml version="1.0" standalone="no"?><!DOCTYPE svg PUBLIC "-//W3C//DTD SVG 1.1//EN" "http://www.w3.org/Graphics/SVG/1.1/DTD/svg11.dtd"><svg t="1743069331828" class="icon" viewBox="0 0 1024 1024" version="1.1" xmlns="http://www.w3.org/2000/svg" p-id="7030" xmlns:xlink="http://www.w3.org/1999/xlink" width="200" height="200"><path d="M524.448 192.064c-24.864 0-32.128 34.56-62.016 34.56-28.96 0-49.984-25.92-77.056-25.92-25.824 0-42.56 18.944-55.424 57.92-44.064 133.216-42.144 127.552-41.824 134.56 0 42.624 156.064 182.496 364.992 182.496V576c53.792 0 131.52-12 131.52-80.96 0.64-11.616 1.6-2.944-33.312-165.44-7.232-32.96-13.888-47.968-67.392-76.608-41.856-23.008-132.736-60.928-159.488-60.928z m-259.84 225.184C191.04 420.8 96 434.24 96 519.68 96 659.52 422.08 832 680.32 832c197.76 0 247.68-90.88 247.68-162.88 0-56.64-48-120.64-134.72-159.04 7.36 39.584 6.72 51.808 6.72 56.96 0 67.456-68.96 104.96-159.744 104.96C435.616 672.352 256 539.936 256 452.736c0-12.16 4.16-24.32 8.64-35.488z" p-id="7031"></path></svg>