<?xml version="1.0" standalone="no"?><!DOCTYPE svg PUBLIC "-//W3C//DTD SVG 1.1//EN" "http://www.w3.org/Graphics/SVG/1.1/DTD/svg11.dtd"><svg t="1751191979432" class="icon" viewBox="0 0 1024 1024" version="1.1" xmlns="http://www.w3.org/2000/svg" p-id="30627" xmlns:xlink="http://www.w3.org/1999/xlink" width="200" height="200"><path d="M682.016 55.84l192.736 216.64c0.864 0.864 0.864 2.048 0 2.944a4.704 4.704 0 0 1-4.928 0.128l-0.224-0.128-249.632-178.784 62.048-40.8z" p-id="30628"></path><path d="M256.32 638.976c42.304-61.472 99.776-117.44 169.888-165.44a851.84 851.84 0 0 1 84.928-51.168v126.176L256.32 638.976z m-147.008 116.928l401.824-140.224v321.088l90.432 80.736V582.88l54.912-19.488c134.496-46.496 188.576-159.04 120.768-251.36a204.864 204.864 0 0 0-45.856-44.736l-206.816-148.48c-17.152-12.704-16.16-32.576 2.272-44.448 18.592-11.808 47.552-11.136 64.832 1.536l29.056 20.736 61.248-40.928C608.672-9.632 518.656-1.376 466.976 31.296c-52.928 34.272-55.456 91.456-5.728 127.872l209.088 149.6c70.24 51.776 66.08 132.864-9.28 181.12a199.552 199.552 0 0 1-31.584 16.288l-28.384 10.08v-202.88c-252.064 89.184-432.64 251.328-491.84 441.792v0.736z" p-id="30629"></path><path d="M601.568 582.752v65.632l-90.432 31.52V614.72l90.432-31.968z" p-id="30630"></path></svg>